<svg width="26" height="28" viewBox="0 0 26 28" fill="none" xmlns="http://www.w3.org/2000/svg">
<path fill-rule="evenodd" clip-rule="evenodd" d="M12.7402 24.3294C10.4275 22.7709 8.27595 20.9366 6.32419 18.8594C4.95201 17.3634 3.90739 15.5397 3.27033 13.528C2.12393 9.62536 3.463 5.15763 7.21048 3.83544C9.18001 3.14117 11.331 3.53798 12.9907 4.90172C14.6509 3.53964 16.8012 3.14297 18.7708 3.83544C22.5183 5.15763 23.867 9.62536 22.7206 13.528C22.0836 15.5397 21.0389 17.3634 19.6668 18.8594C17.715 20.9366 15.5635 22.7709 13.2508 24.3294L13.0003 24.5L12.7402 24.3294Z" stroke="#939393" stroke-width="1.5" stroke-linecap="round" stroke-linejoin="round"/>
<path d="M16.979 8.22852C18.1141 8.62553 18.9205 9.74133 19.0213 11.0542" stroke="#939393" stroke-width="1.5" stroke-linecap="round" stroke-linejoin="round"/>
</svg>
